<?xml version="1.0" encoding="utf-8"?>
<!-- Generator: Adobe Illustrator 23.0.4, SVG Export Plug-In . SVG Version: 6.00 Build 0)  -->
<svg version="1.1" id="Layer_1" xmlns="http://www.w3.org/2000/svg" xmlns:xlink="http://www.w3.org/1999/xlink" x="0px" y="0px"
	 viewBox="0 0 126 117" height="100px" style="enable-background:new 0 0 126 117;" xml:space="preserve">
<style type="text/css">
	.st0{fill:none;stroke:#DD4A22;stroke-width:2.7801;stroke-linecap:round;stroke-miterlimit:10;}
	.st1{fill:none;stroke:#F3B83C;stroke-width:2.7801;stroke-linecap:round;stroke-miterlimit:10;}
	.st2{fill:none;stroke:#6060A6;stroke-width:2.7801;stroke-linecap:round;stroke-miterlimit:10;}
	.st3{fill:none;stroke:#DD4A22;stroke-width:2.78;stroke-linecap:round;stroke-linejoin:round;stroke-miterlimit:10;}
	.st4{fill:none;stroke:#F3B83C;stroke-width:2.78;stroke-linecap:round;stroke-linejoin:round;stroke-miterlimit:10;}
	.st5{fill:none;stroke:#6060A6;stroke-width:2.78;stroke-linecap:round;stroke-linejoin:round;stroke-miterlimit:10;}
</style>
<g>
	<path class="st3" d="M59.72,15.54c-26.92,28.43,26.3,57.44-0.62,85.87h7.53c26.92-28.43-26.3-57.44,0.62-85.87"/>
	<path class="st4" d="M74.79,15.54c-26.92,28.43,26.3,57.44-0.62,85.87"/>
	<path class="st3" d="M89.86,15.54h-7.53c-26.92,28.43,26.3,57.44-0.62,85.87h9.53"/>
	<path class="st5" d="M97.39,15.54c-26.92,28.43,26.3,57.44-0.62,85.87"/>
	<path class="st5" d="M28.61,101.41c26.92-28.43-26.3-57.44,0.62-85.87h7.71c-26.92,28.43,26.3,57.44-0.62,85.87h7.71
		c26.92-28.43-26.3-57.44,0.62-85.87l7.71,0.06c-26.92,28.43,26.3,57.44-0.62,85.87"/>
	<line class="st3" x1="82.01" y1="58.47" x2="86.99" y2="58.47"/>
</g>
</svg>
